<svg width="31" height="34" viewBox="0 0 31 34" fill="none" xmlns="http://www.w3.org/2000/svg">
<g filter="url(#filter0_i_2819_433)">
<path fill-rule="evenodd" clip-rule="evenodd" d="M7.76284 22.0086C8.45117 22.8047 10.2027 25.7539 10.5748 27.2309H20.592C20.9641 25.7552 22.7135 22.806 23.4018 22.0107C24.578 20.6532 25.3184 19.0054 25.5355 17.2623C25.7495 15.5225 25.4293 13.7611 24.6132 12.189C23.7897 10.6048 22.5086 9.27384 20.9183 8.35029C19.3145 7.41648 17.468 6.92271 15.5848 6.92408C13.698 6.92408 11.8491 7.41821 10.2514 8.34894C8.66066 9.27211 7.37903 10.6028 6.55506 12.1869C5.73844 13.7585 5.41751 15.5193 5.63062 17.2589C5.84456 18.9965 6.58368 20.6433 7.76284 22.0086ZM16.2989 12.3392L12.0058 18.4313H14.8679V22.4926L19.161 16.4006H16.2989V12.3392Z" fill="#FEC165"/>
</g>
<path d="M10.5748 29.2616C10.5748 29.0821 10.6502 28.9099 10.7844 28.783C10.9186 28.656 11.1006 28.5847 11.2903 28.5847H19.8765C20.0663 28.5847 20.2483 28.656 20.3824 28.783C20.5166 28.9099 20.592 29.0821 20.592 29.2616C20.592 29.4411 20.5166 29.6133 20.3824 29.7402C20.2483 29.8672 20.0663 29.9385 19.8765 29.9385H11.2903C11.1006 29.9385 10.9186 29.8672 10.7844 29.7402C10.6502 29.6133 10.5748 29.4411 10.5748 29.2616ZM20.592 31.2923H10.5748V32.6461C10.5748 33.0051 10.7256 33.3495 10.994 33.6033C11.2623 33.8572 11.6263 33.9999 12.0059 33.9999H19.161C19.5405 33.9999 19.9045 33.8572 20.1729 33.6033C20.4412 33.3495 20.592 33.0051 20.592 32.6461V31.2923Z" fill="#838383"/>
<rect width="2.86205" height="1.35379" rx="0.676894" transform="matrix(0.99999 0.00456068 -0.00525688 0.999986 0.00695801 14.1244)" fill="#FE9901"/>
<rect width="2.75149" height="1.37765" rx="0.688826" transform="matrix(0.848442 0.529289 -0.571838 0.820367 3.49231 5.57043)" fill="#FE9901"/>
<rect width="4.21682" height="1.43102" rx="0.715511" transform="matrix(0.00734832 0.999973 -0.999981 0.00619537 15.5731 0)" fill="#FE9901"/>
<rect width="3.06218" height="1.39298" rx="0.69649" transform="matrix(-0.726102 0.687587 -0.726777 -0.686874 28.634 6.62158)" fill="#FE9901"/>
<rect width="2.61463" height="1.35385" rx="0.676927" transform="matrix(-0.99962 0.027584 -0.0308184 -0.999525 31 16.1185)" fill="#FE9901"/>
<defs>
<filter id="filter0_i_2819_433" x="3.56653" y="6.92407" width="22.0336" height="20.3068" filterUnits="userSpaceOnUse" color-interpolation-filters="sRGB">
<feFlood flood-opacity="0" result="BackgroundImageFix"/>
<feBlend mode="normal" in="SourceGraphic" in2="BackgroundImageFix" result="shape"/>
<feColorMatrix in="SourceAlpha" type="matrix" values="0 0 0 0 0 0 0 0 0 0 0 0 0 0 0 0 0 0 127 0" result="hardAlpha"/>
<feOffset dx="-3"/>
<feGaussianBlur stdDeviation="1"/>
<feComposite in2="hardAlpha" operator="arithmetic" k2="-1" k3="1"/>
<feColorMatrix type="matrix" values="0 0 0 0 0.992157 0 0 0 0 0.705882 0 0 0 0 0.254902 0 0 0 1 0"/>
<feBlend mode="normal" in2="shape" result="effect1_innerShadow_2819_433"/>
</filter>
</defs>
</svg>
